# xmcd CD database file
#
# Track frame offsets:
#	150
#	10849
#	28775
#	40274
#	56665
#	71338
#	87411
#	100710
#	116769
#	131047
#	148122
#	163470
#	177387
#	193930
#	211537
#	225293
#	246842
#
# Disc length: 3474 seconds
#
# Revision: 2
# Processed by: cddbd v1.4PL0 Copyright (c) Steve Scherf et al.
# Submitted via: Feurio! 1.65 - http://www.feurio.com
#
DISCID=ef0d9011
DTITLE=Various Artist - Die Schlager des Jahrhunderts CD6
DYEAR=1900
DGENRE=country
TTITLE0=Howard Carpendale - Das schöne Mädchen von Seite eins
TTITLE1=Paola - Der Teufel und der junge Mann
TTITLE2=Freddy Quinn - Die Gitarre und das Meer
TTITLE3=Klaus and Klaus - An der Nordseeküste
TTITLE4=Caterina Valente - Ganz Paris träumt von der Liebe
TTITLE5=Zillertaler Schürzenjäger - Sierra Madre
TTITLE6=Dorthe - Sind sie der Graf von Luxemburg
TTITLE7=Chris Wolf - Lady Sunshine
TTITLE8=Lale Andersen - Lilli Marlene
TTITLE9=Ivan Rebroff - Wolgalied
TTITLE10=Rene Carol - Rote Rosen, rote Lippen, roter Wein
TTITLE11=Elfi Graf - Herzen haben keine Fenster
TTITLE12=Andy L. - Mara
TTITLE13=Ulli Martin - Monika
TTITLE14=Marlene Dietrich - Ich bin von Kopf bis Fuß auf Liebe eingestellt
TTITLE15=Jonny Hill - Ruf Teddybär Eins-Vier
TTITLE16=Rainer Kirsten - Ganz in weiss
EXTD=hn
EXTT0=
EXTT1=
EXTT2=
EXTT3=
EXTT4=
EXTT5=
EXTT6=
EXTT7=
EXTT8=
EXTT9=
EXTT10=
EXTT11=
EXTT12=
EXTT13=
EXTT14=
EXTT15=
EXTT16=
PLAYORDER=
